<mxfile host="app.diagrams.net" agent="Mozilla/5.0 (Windows NT 10.0; Win64; x64) AppleWebKit/537.36 (KHTML, like Gecko) Chrome/135.0.0.0 Safari/537.36" version="26.2.13">
  <diagram name="Sayfa -1" id="wUjpfYoonvVazD4d8g3F">
    <mxGraphModel grid="0" page="0" gridSize="10" guides="1" tooltips="1" connect="1" arrows="1" fold="1" pageScale="1" pageWidth="827" pageHeight="1169" math="0" shadow="0">
      <root>
        <mxCell id="0" />
        <mxCell id="1" parent="0" />
        <mxCell id="hWya1y5Bkg-3yctMUgoX-46" value="Enter Goals Menu" style="rounded=1;whiteSpace=wrap;html=1;" vertex="1" parent="1">
          <mxGeometry x="355" y="150" width="120" height="60" as="geometry" />
        </mxCell>
        <mxCell id="hWya1y5Bkg-3yctMUgoX-48" style="edgeStyle=orthogonalEdgeStyle;rounded=0;orthogonalLoop=1;jettySize=auto;html=1;entryX=0.5;entryY=0;entryDx=0;entryDy=0;" edge="1" parent="1" source="hWya1y5Bkg-3yctMUgoX-49" target="hWya1y5Bkg-3yctMUgoX-79">
          <mxGeometry relative="1" as="geometry">
            <Array as="points">
              <mxPoint x="469" y="290" />
              <mxPoint x="520" y="290" />
            </Array>
          </mxGeometry>
        </mxCell>
        <mxCell id="hWya1y5Bkg-3yctMUgoX-121" style="edgeStyle=orthogonalEdgeStyle;rounded=0;orthogonalLoop=1;jettySize=auto;html=1;entryX=0.5;entryY=0;entryDx=0;entryDy=0;" edge="1" parent="1" source="hWya1y5Bkg-3yctMUgoX-49" target="hWya1y5Bkg-3yctMUgoX-120">
          <mxGeometry relative="1" as="geometry">
            <Array as="points">
              <mxPoint x="335" y="291" />
              <mxPoint x="111" y="291" />
            </Array>
          </mxGeometry>
        </mxCell>
        <mxCell id="hWya1y5Bkg-3yctMUgoX-49" value="" style="shape=line;html=1;strokeWidth=6;strokeColor=#ff0000;" vertex="1" parent="1">
          <mxGeometry x="310" y="260" width="200" height="10" as="geometry" />
        </mxCell>
        <mxCell id="hWya1y5Bkg-3yctMUgoX-50" style="edgeStyle=orthogonalEdgeStyle;rounded=0;orthogonalLoop=1;jettySize=auto;html=1;entryX=0.532;entryY=0.8;entryDx=0;entryDy=0;entryPerimeter=0;" edge="1" parent="1" source="hWya1y5Bkg-3yctMUgoX-46" target="hWya1y5Bkg-3yctMUgoX-49">
          <mxGeometry relative="1" as="geometry">
            <Array as="points">
              <mxPoint x="415" y="235" />
              <mxPoint x="416" y="235" />
            </Array>
          </mxGeometry>
        </mxCell>
        <mxCell id="hWya1y5Bkg-3yctMUgoX-51" value="Select Goal" style="rounded=1;whiteSpace=wrap;html=1;" vertex="1" parent="1">
          <mxGeometry x="49" y="464" width="120" height="60" as="geometry" />
        </mxCell>
        <mxCell id="hWya1y5Bkg-3yctMUgoX-52" value="" style="ellipse;html=1;shape=startState;fillColor=#000000;strokeColor=#ff0000;" vertex="1" parent="1">
          <mxGeometry x="390" y="50" width="50" height="50" as="geometry" />
        </mxCell>
        <mxCell id="hWya1y5Bkg-3yctMUgoX-53" value="" style="edgeStyle=orthogonalEdgeStyle;html=1;verticalAlign=bottom;endArrow=open;endSize=8;strokeColor=#ff0000;rounded=0;entryX=0.5;entryY=0;entryDx=0;entryDy=0;" edge="1" parent="1" source="hWya1y5Bkg-3yctMUgoX-52" target="hWya1y5Bkg-3yctMUgoX-46">
          <mxGeometry relative="1" as="geometry">
            <mxPoint x="414" y="90" as="targetPoint" />
          </mxGeometry>
        </mxCell>
        <mxCell id="hWya1y5Bkg-3yctMUgoX-54" value="" style="ellipse;html=1;shape=endState;fillColor=#000000;strokeColor=#ff0000;" vertex="1" parent="1">
          <mxGeometry x="310" y="894" width="46" height="50" as="geometry" />
        </mxCell>
        <mxCell id="hWya1y5Bkg-3yctMUgoX-55" value="Update Goal Info" style="rounded=1;whiteSpace=wrap;html=1;" vertex="1" parent="1">
          <mxGeometry x="-81" y="611" width="120" height="60" as="geometry" />
        </mxCell>
        <mxCell id="hWya1y5Bkg-3yctMUgoX-56" style="edgeStyle=orthogonalEdgeStyle;rounded=0;orthogonalLoop=1;jettySize=auto;html=1;entryX=0.5;entryY=0;entryDx=0;entryDy=0;" edge="1" parent="1" source="hWya1y5Bkg-3yctMUgoX-57" target="hWya1y5Bkg-3yctMUgoX-80">
          <mxGeometry relative="1" as="geometry">
            <mxPoint x="239" y="716" as="targetPoint" />
            <Array as="points" />
          </mxGeometry>
        </mxCell>
        <mxCell id="hWya1y5Bkg-3yctMUgoX-57" value="Check Daily Goal Progress" style="rounded=1;whiteSpace=wrap;html=1;" vertex="1" parent="1">
          <mxGeometry x="179" y="611" width="120" height="60" as="geometry" />
        </mxCell>
        <mxCell id="hWya1y5Bkg-3yctMUgoX-58" style="edgeStyle=orthogonalEdgeStyle;rounded=0;orthogonalLoop=1;jettySize=auto;html=1;entryX=0.5;entryY=0;entryDx=0;entryDy=0;" edge="1" parent="1" source="hWya1y5Bkg-3yctMUgoX-61" target="hWya1y5Bkg-3yctMUgoX-55">
          <mxGeometry relative="1" as="geometry">
            <Array as="points">
              <mxPoint x="19" y="581" />
              <mxPoint x="-21" y="581" />
            </Array>
          </mxGeometry>
        </mxCell>
        <mxCell id="hWya1y5Bkg-3yctMUgoX-59" style="edgeStyle=orthogonalEdgeStyle;rounded=0;orthogonalLoop=1;jettySize=auto;html=1;entryX=0.5;entryY=0;entryDx=0;entryDy=0;" edge="1" parent="1" source="hWya1y5Bkg-3yctMUgoX-61" target="hWya1y5Bkg-3yctMUgoX-57">
          <mxGeometry relative="1" as="geometry">
            <Array as="points">
              <mxPoint x="199" y="581" />
              <mxPoint x="239" y="581" />
            </Array>
          </mxGeometry>
        </mxCell>
        <mxCell id="hWya1y5Bkg-3yctMUgoX-60" style="edgeStyle=orthogonalEdgeStyle;rounded=0;orthogonalLoop=1;jettySize=auto;html=1;entryX=0.5;entryY=0;entryDx=0;entryDy=0;" edge="1" parent="1" source="hWya1y5Bkg-3yctMUgoX-61" target="hWya1y5Bkg-3yctMUgoX-63">
          <mxGeometry relative="1" as="geometry" />
        </mxCell>
        <mxCell id="hWya1y5Bkg-3yctMUgoX-61" value="" style="shape=line;html=1;strokeWidth=6;strokeColor=#ff0000;" vertex="1" parent="1">
          <mxGeometry x="9" y="546" width="200" height="10" as="geometry" />
        </mxCell>
        <mxCell id="hWya1y5Bkg-3yctMUgoX-62" style="edgeStyle=orthogonalEdgeStyle;rounded=0;orthogonalLoop=1;jettySize=auto;html=1;entryX=0.5;entryY=0.68;entryDx=0;entryDy=0;entryPerimeter=0;" edge="1" parent="1" source="hWya1y5Bkg-3yctMUgoX-51" target="hWya1y5Bkg-3yctMUgoX-61">
          <mxGeometry relative="1" as="geometry" />
        </mxCell>
        <mxCell id="hWya1y5Bkg-3yctMUgoX-63" value="Remove Goal" style="rounded=1;whiteSpace=wrap;html=1;" vertex="1" parent="1">
          <mxGeometry x="49" y="611" width="120" height="60" as="geometry" />
        </mxCell>
        <mxCell id="hWya1y5Bkg-3yctMUgoX-64" value="" style="shape=line;html=1;strokeWidth=6;strokeColor=#ff0000;" vertex="1" parent="1">
          <mxGeometry x="-61" y="696" width="200" height="10" as="geometry" />
        </mxCell>
        <mxCell id="hWya1y5Bkg-3yctMUgoX-65" value="Save Changes" style="rounded=1;whiteSpace=wrap;html=1;" vertex="1" parent="1">
          <mxGeometry x="-21" y="756" width="120" height="60" as="geometry" />
        </mxCell>
        <mxCell id="hWya1y5Bkg-3yctMUgoX-66" style="edgeStyle=orthogonalEdgeStyle;rounded=0;orthogonalLoop=1;jettySize=auto;html=1;entryX=0.25;entryY=0.5;entryDx=0;entryDy=0;entryPerimeter=0;" edge="1" parent="1" source="hWya1y5Bkg-3yctMUgoX-55" target="hWya1y5Bkg-3yctMUgoX-64">
          <mxGeometry relative="1" as="geometry" />
        </mxCell>
        <mxCell id="hWya1y5Bkg-3yctMUgoX-67" style="edgeStyle=orthogonalEdgeStyle;rounded=0;orthogonalLoop=1;jettySize=auto;html=1;entryX=0.75;entryY=0.5;entryDx=0;entryDy=0;entryPerimeter=0;" edge="1" parent="1" source="hWya1y5Bkg-3yctMUgoX-63" target="hWya1y5Bkg-3yctMUgoX-64">
          <mxGeometry relative="1" as="geometry" />
        </mxCell>
        <mxCell id="hWya1y5Bkg-3yctMUgoX-68" style="edgeStyle=orthogonalEdgeStyle;rounded=0;orthogonalLoop=1;jettySize=auto;html=1;" edge="1" parent="1" source="hWya1y5Bkg-3yctMUgoX-70" target="hWya1y5Bkg-3yctMUgoX-65">
          <mxGeometry relative="1" as="geometry" />
        </mxCell>
        <mxCell id="hWya1y5Bkg-3yctMUgoX-69" style="edgeStyle=orthogonalEdgeStyle;rounded=0;orthogonalLoop=1;jettySize=auto;html=1;entryX=0.5;entryY=1;entryDx=0;entryDy=0;" edge="1" parent="1" source="hWya1y5Bkg-3yctMUgoX-70" target="hWya1y5Bkg-3yctMUgoX-72">
          <mxGeometry relative="1" as="geometry">
            <mxPoint x="-141" y="656" as="targetPoint" />
            <Array as="points">
              <mxPoint x="-41" y="746" />
              <mxPoint x="-161" y="746" />
            </Array>
          </mxGeometry>
        </mxCell>
        <mxCell id="hWya1y5Bkg-3yctMUgoX-70" value="" style="shape=line;html=1;strokeWidth=6;strokeColor=#ff0000;" vertex="1" parent="1">
          <mxGeometry x="-61" y="726" width="200" height="10" as="geometry" />
        </mxCell>
        <mxCell id="hWya1y5Bkg-3yctMUgoX-71" style="edgeStyle=orthogonalEdgeStyle;rounded=0;orthogonalLoop=1;jettySize=auto;html=1;entryX=0.495;entryY=0.36;entryDx=0;entryDy=0;entryPerimeter=0;" edge="1" parent="1" source="hWya1y5Bkg-3yctMUgoX-64" target="hWya1y5Bkg-3yctMUgoX-70">
          <mxGeometry relative="1" as="geometry" />
        </mxCell>
        <mxCell id="hWya1y5Bkg-3yctMUgoX-72" value="Discard Changes" style="rounded=1;whiteSpace=wrap;html=1;" vertex="1" parent="1">
          <mxGeometry x="-222" y="611" width="120" height="60" as="geometry" />
        </mxCell>
        <mxCell id="hWya1y5Bkg-3yctMUgoX-73" style="edgeStyle=orthogonalEdgeStyle;rounded=0;orthogonalLoop=1;jettySize=auto;html=1;entryX=0;entryY=0.5;entryDx=0;entryDy=0;entryPerimeter=0;" edge="1" parent="1" source="hWya1y5Bkg-3yctMUgoX-72" target="hWya1y5Bkg-3yctMUgoX-61">
          <mxGeometry relative="1" as="geometry">
            <Array as="points">
              <mxPoint x="-151" y="551" />
            </Array>
          </mxGeometry>
        </mxCell>
        <mxCell id="hWya1y5Bkg-3yctMUgoX-74" style="edgeStyle=orthogonalEdgeStyle;rounded=0;orthogonalLoop=1;jettySize=auto;html=1;" edge="1" parent="1" source="hWya1y5Bkg-3yctMUgoX-75" target="hWya1y5Bkg-3yctMUgoX-54">
          <mxGeometry relative="1" as="geometry">
            <Array as="points">
              <mxPoint x="119" y="927" />
            </Array>
          </mxGeometry>
        </mxCell>
        <mxCell id="hWya1y5Bkg-3yctMUgoX-75" value="" style="shape=line;html=1;strokeWidth=6;strokeColor=#ff0000;" vertex="1" parent="1">
          <mxGeometry x="19" y="856" width="200" height="10" as="geometry" />
        </mxCell>
        <mxCell id="hWya1y5Bkg-3yctMUgoX-76" style="edgeStyle=orthogonalEdgeStyle;rounded=0;orthogonalLoop=1;jettySize=auto;html=1;entryX=0.499;entryY=0.4;entryDx=0;entryDy=0;entryPerimeter=0;" edge="1" parent="1" source="hWya1y5Bkg-3yctMUgoX-65" target="hWya1y5Bkg-3yctMUgoX-75">
          <mxGeometry relative="1" as="geometry" />
        </mxCell>
        <mxCell id="hWya1y5Bkg-3yctMUgoX-78" value="" style="edgeStyle=orthogonalEdgeStyle;rounded=0;orthogonalLoop=1;jettySize=auto;html=1;entryX=0.5;entryY=0;entryDx=0;entryDy=0;" edge="1" parent="1" source="hWya1y5Bkg-3yctMUgoX-79" target="hWya1y5Bkg-3yctMUgoX-115">
          <mxGeometry relative="1" as="geometry">
            <mxPoint x="512" y="408" as="targetPoint" />
          </mxGeometry>
        </mxCell>
        <mxCell id="hWya1y5Bkg-3yctMUgoX-79" value="Add New Goal" style="rounded=1;whiteSpace=wrap;html=1;" vertex="1" parent="1">
          <mxGeometry x="460" y="310" width="120" height="60" as="geometry" />
        </mxCell>
        <mxCell id="hWya1y5Bkg-3yctMUgoX-80" value="View Saved Goal Info" style="rounded=1;whiteSpace=wrap;html=1;" vertex="1" parent="1">
          <mxGeometry x="179" y="726" width="120" height="60" as="geometry" />
        </mxCell>
        <mxCell id="hWya1y5Bkg-3yctMUgoX-81" style="edgeStyle=orthogonalEdgeStyle;rounded=0;orthogonalLoop=1;jettySize=auto;html=1;entryX=0.75;entryY=0.5;entryDx=0;entryDy=0;entryPerimeter=0;" edge="1" parent="1" source="hWya1y5Bkg-3yctMUgoX-80" target="hWya1y5Bkg-3yctMUgoX-75">
          <mxGeometry relative="1" as="geometry" />
        </mxCell>
        <mxCell id="hWya1y5Bkg-3yctMUgoX-92" style="edgeStyle=orthogonalEdgeStyle;rounded=0;orthogonalLoop=1;jettySize=auto;html=1;entryX=0.5;entryY=0;entryDx=0;entryDy=0;" edge="1" parent="1" source="hWya1y5Bkg-3yctMUgoX-94" target="hWya1y5Bkg-3yctMUgoX-54">
          <mxGeometry relative="1" as="geometry">
            <Array as="points">
              <mxPoint x="512" y="871" />
              <mxPoint x="333" y="871" />
            </Array>
          </mxGeometry>
        </mxCell>
        <mxCell id="hWya1y5Bkg-3yctMUgoX-93" style="edgeStyle=orthogonalEdgeStyle;rounded=0;orthogonalLoop=1;jettySize=auto;html=1;entryX=1;entryY=0.5;entryDx=0;entryDy=0;entryPerimeter=0;" edge="1" parent="1" source="hWya1y5Bkg-3yctMUgoX-94" target="hWya1y5Bkg-3yctMUgoX-49">
          <mxGeometry relative="1" as="geometry">
            <mxPoint x="600" y="780" as="targetPoint" />
            <Array as="points">
              <mxPoint x="617" y="785" />
              <mxPoint x="780" y="785" />
              <mxPoint x="780" y="265" />
            </Array>
          </mxGeometry>
        </mxCell>
        <mxCell id="hWya1y5Bkg-3yctMUgoX-94" value="" style="shape=line;html=1;strokeWidth=6;strokeColor=#ff0000;" vertex="1" parent="1">
          <mxGeometry x="440" y="765" width="200" height="10" as="geometry" />
        </mxCell>
        <mxCell id="hWya1y5Bkg-3yctMUgoX-95" style="edgeStyle=orthogonalEdgeStyle;rounded=0;orthogonalLoop=1;jettySize=auto;html=1;entryX=0.5;entryY=0;entryDx=0;entryDy=0;" edge="1" parent="1" source="hWya1y5Bkg-3yctMUgoX-99" target="hWya1y5Bkg-3yctMUgoX-100">
          <mxGeometry relative="1" as="geometry" />
        </mxCell>
        <mxCell id="hWya1y5Bkg-3yctMUgoX-96" value="&lt;font style=&quot;font-size: 20px;&quot;&gt;YES&lt;/font&gt;" style="edgeLabel;html=1;align=center;verticalAlign=middle;resizable=0;points=[];" connectable="0" vertex="1" parent="hWya1y5Bkg-3yctMUgoX-95">
          <mxGeometry x="-0.2549" y="3" relative="1" as="geometry">
            <mxPoint as="offset" />
          </mxGeometry>
        </mxCell>
        <mxCell id="hWya1y5Bkg-3yctMUgoX-97" style="edgeStyle=orthogonalEdgeStyle;rounded=0;orthogonalLoop=1;jettySize=auto;html=1;entryX=0;entryY=0.5;entryDx=0;entryDy=0;" edge="1" parent="1" source="hWya1y5Bkg-3yctMUgoX-99" target="hWya1y5Bkg-3yctMUgoX-101">
          <mxGeometry relative="1" as="geometry" />
        </mxCell>
        <mxCell id="hWya1y5Bkg-3yctMUgoX-98" value="&lt;font style=&quot;font-size: 20px;&quot;&gt;NO&lt;/font&gt;" style="edgeLabel;html=1;align=center;verticalAlign=middle;resizable=0;points=[];" connectable="0" vertex="1" parent="hWya1y5Bkg-3yctMUgoX-97">
          <mxGeometry x="-0.1013" y="2" relative="1" as="geometry">
            <mxPoint x="-5" y="2" as="offset" />
          </mxGeometry>
        </mxCell>
        <mxCell id="hWya1y5Bkg-3yctMUgoX-99" value="Are entered values valid?" style="rhombus;whiteSpace=wrap;html=1;" vertex="1" parent="1">
          <mxGeometry x="460" y="502" width="117" height="101" as="geometry" />
        </mxCell>
        <mxCell id="hWya1y5Bkg-3yctMUgoX-100" value="Save Goal" style="rounded=1;whiteSpace=wrap;html=1;" vertex="1" parent="1">
          <mxGeometry x="466" y="674" width="120" height="60" as="geometry" />
        </mxCell>
        <mxCell id="hWya1y5Bkg-3yctMUgoX-117" style="edgeStyle=orthogonalEdgeStyle;rounded=0;orthogonalLoop=1;jettySize=auto;html=1;entryX=1;entryY=0.5;entryDx=0;entryDy=0;" edge="1" parent="1" source="hWya1y5Bkg-3yctMUgoX-101" target="hWya1y5Bkg-3yctMUgoX-115">
          <mxGeometry relative="1" as="geometry">
            <Array as="points">
              <mxPoint x="687" y="429" />
            </Array>
          </mxGeometry>
        </mxCell>
        <mxCell id="hWya1y5Bkg-3yctMUgoX-101" value="Display Error Message" style="rounded=1;whiteSpace=wrap;html=1;" vertex="1" parent="1">
          <mxGeometry x="633" y="475" width="120" height="60" as="geometry" />
        </mxCell>
        <mxCell id="hWya1y5Bkg-3yctMUgoX-103" style="edgeStyle=orthogonalEdgeStyle;rounded=0;orthogonalLoop=1;jettySize=auto;html=1;entryX=0.499;entryY=0.44;entryDx=0;entryDy=0;entryPerimeter=0;" edge="1" parent="1" source="hWya1y5Bkg-3yctMUgoX-100" target="hWya1y5Bkg-3yctMUgoX-94">
          <mxGeometry relative="1" as="geometry" />
        </mxCell>
        <mxCell id="hWya1y5Bkg-3yctMUgoX-104" value="START" style="text;html=1;align=center;verticalAlign=middle;resizable=0;points=[];autosize=1;strokeColor=none;fillColor=none;" vertex="1" parent="1">
          <mxGeometry x="440" y="62" width="56" height="26" as="geometry" />
        </mxCell>
        <mxCell id="hWya1y5Bkg-3yctMUgoX-105" value="END" style="text;html=1;align=center;verticalAlign=middle;resizable=0;points=[];autosize=1;strokeColor=none;fillColor=none;" vertex="1" parent="1">
          <mxGeometry x="363" y="903" width="43" height="26" as="geometry" />
        </mxCell>
        <mxCell id="hWya1y5Bkg-3yctMUgoX-116" style="edgeStyle=orthogonalEdgeStyle;rounded=0;orthogonalLoop=1;jettySize=auto;html=1;entryX=0.5;entryY=0;entryDx=0;entryDy=0;" edge="1" parent="1" source="hWya1y5Bkg-3yctMUgoX-115" target="hWya1y5Bkg-3yctMUgoX-99">
          <mxGeometry relative="1" as="geometry" />
        </mxCell>
        <mxCell id="hWya1y5Bkg-3yctMUgoX-115" value="Enter Goal Info" style="rounded=1;whiteSpace=wrap;html=1;" vertex="1" parent="1">
          <mxGeometry x="460" y="399" width="120" height="60" as="geometry" />
        </mxCell>
        <mxCell id="hWya1y5Bkg-3yctMUgoX-122" style="edgeStyle=orthogonalEdgeStyle;rounded=0;orthogonalLoop=1;jettySize=auto;html=1;entryX=0;entryY=0.5;entryDx=0;entryDy=0;" edge="1" parent="1" source="hWya1y5Bkg-3yctMUgoX-120" target="hWya1y5Bkg-3yctMUgoX-79">
          <mxGeometry relative="1" as="geometry" />
        </mxCell>
        <mxCell id="hWya1y5Bkg-3yctMUgoX-124" style="edgeStyle=orthogonalEdgeStyle;rounded=0;orthogonalLoop=1;jettySize=auto;html=1;entryX=0.5;entryY=0;entryDx=0;entryDy=0;" edge="1" parent="1" source="hWya1y5Bkg-3yctMUgoX-120" target="hWya1y5Bkg-3yctMUgoX-51">
          <mxGeometry relative="1" as="geometry" />
        </mxCell>
        <mxCell id="hWya1y5Bkg-3yctMUgoX-120" value="Are there any existing goals?" style="rhombus;whiteSpace=wrap;html=1;" vertex="1" parent="1">
          <mxGeometry x="52" y="323" width="117" height="101" as="geometry" />
        </mxCell>
        <mxCell id="hWya1y5Bkg-3yctMUgoX-123" value="NO" style="text;html=1;align=center;verticalAlign=middle;resizable=0;points=[];autosize=1;strokeColor=none;fillColor=none;" vertex="1" parent="1">
          <mxGeometry x="169" y="352" width="36" height="26" as="geometry" />
        </mxCell>
        <mxCell id="hWya1y5Bkg-3yctMUgoX-125" value="YES" style="text;html=1;align=center;verticalAlign=middle;resizable=0;points=[];autosize=1;strokeColor=none;fillColor=none;" vertex="1" parent="1">
          <mxGeometry x="127" y="421" width="42" height="26" as="geometry" />
        </mxCell>
      </root>
    </mxGraphModel>
  </diagram>
</mxfile>
